<svg width="1519" height="1554" viewBox="0 0 1519 1554" fill="none" xmlns="http://www.w3.org/2000/svg">
<rect width="1519" height="1554" rx="120" fill="black"/>
<path d="M736.505 1183.58C634.391 1046.4 600.903 982.694 600.903 982.694C600.903 982.694 583.885 832.377 590.559 759.671C598.932 668.452 615.687 981.384 688.453 896.387C760.73 811.961 693.727 553.571 832.018 503.83C859.445 493.965 763.44 467.932 797.566 518.395C828.435 564.041 798.087 512.717 798.087 512.717C798.087 512.717 797.008 478.213 797.566 518.395C797.566 518.395 913.116 462.753 841.021 532.188C780.151 590.812 784.606 1248.2 736.505 1183.58Z" fill="white"/>
<path d="M781.495 370.165C883.609 507.348 917.097 571.056 917.097 571.056C917.097 571.056 934.115 721.373 927.441 794.079C919.068 885.298 902.313 572.366 829.547 657.363C757.27 741.789 824.273 1000.18 685.982 1049.92C658.555 1059.78 754.56 1085.82 720.434 1035.36C689.565 989.709 719.913 1041.03 719.913 1041.03C719.913 1041.03 720.992 1075.54 720.434 1035.36C720.434 1035.36 604.884 1091 676.979 1021.56C737.849 962.938 733.394 305.546 781.495 370.165Z" fill="white"/>
<ellipse cx="40.2919" cy="335.606" rx="40.2919" ry="335.606" transform="matrix(-0.999967 -0.00808947 -0.0276042 0.999619 896.531 698.962)" fill="white"/>
<ellipse cx="40.2919" cy="335.606" rx="40.2919" ry="335.606" transform="matrix(-0.999967 -0.00808947 -0.0276042 0.999619 725.015 185.651)" fill="white"/>
</svg>
